<svg version="1.1" xmlns="http://www.w3.org/2000/svg" viewBox="0 0 444.3203125 363.2683893969638" width="888.640625" height="726.5367787939276">
  <!-- svg-source:excalidraw -->
  
  <defs>
    <style class="style-fonts">
      @font-face {
        font-family: "Virgil";
        src: url("https://excalidraw.com/Virgil.woff2");
      }
      @font-face {
        font-family: "Cascadia";
        src: url("https://excalidraw.com/Cascadia.woff2");
      }
      @font-face {
        font-family: "Assistant";
        src: url("https://excalidraw.com/Assistant-Regular.woff2");
      }
    </style>
    
  </defs>
  <rect x="0" y="0" width="444.3203125" height="363.2683893969638" fill="#ffffff"></rect><g stroke-linecap="round" transform="translate(95.92630610487981 10) rotate(0 126.62890625 22)"><path d="M0 0 C63.15 -1.75, 130.12 -1.85, 253.26 0 M0 0 C74.54 -1.32, 148.36 -1.28, 253.26 0 M253.26 0 C251.12 12.83, 252.8 27.7, 253.26 44 M253.26 0 C254.05 16.23, 254.38 32.54, 253.26 44 M253.26 44 C171.83 45.63, 90.88 46.07, 0 44 M253.26 44 C175.96 43.48, 98.23 42.64, 0 44 M0 44 C-0.16 30.24, -0.29 14.72, 0 0 M0 44 C0.02 27.9, 0.98 11.74, 0 0" stroke="#1e1e1e" stroke-width="2" fill="none"></path></g><g transform="translate(117.62529597304388 19.5) rotate(0 104.92991638183594 12.5)"><text x="104.92991638183594" y="17.52" font-family="Virgil, Segoe UI Emoji" font-size="20px" fill="#1e1e1e" text-anchor="middle" style="white-space: pre;" direction="ltr" dominant-baseline="alphabetic">Camera Input Module</text></g><g stroke-linecap="round" transform="translate(75.99843588644467 111.82305638232492) rotate(0 146.16796875 22)"><path d="M0 0 C94.91 0.47, 187.56 1.66, 292.34 0 M0 0 C117.12 -1.25, 233.86 -2.41, 292.34 0 M292.34 0 C291.73 13.25, 293.1 30.87, 292.34 44 M292.34 0 C293.22 10.31, 292.69 18.93, 292.34 44 M292.34 44 C195.25 46.76, 100.33 44.93, 0 44 M292.34 44 C213.97 43.68, 135.29 44.7, 0 44 M0 44 C-0.08 31.72, 1.11 21.56, 0 0 M0 44 C0.87 26.71, 0.4 10.89, 0 0" stroke="#1e1e1e" stroke-width="2" fill="none"></path></g><g transform="translate(100.8965148049017 121.32305638232492) rotate(0 121.26988983154297 12.5)"><text x="121.26988983154297" y="17.52" font-family="Virgil, Segoe UI Emoji" font-size="20px" fill="#1e1e1e" text-anchor="middle" style="white-space: pre;" direction="ltr" dominant-baseline="alphabetic">Image Processing Module</text></g><g stroke-linecap="round" transform="translate(10 210.3685577539298) rotate(0 212.16015625 22)"><path d="M0 0 C92.75 1.87, 186.71 2.62, 424.32 0 M0 0 C165.49 -2.42, 330.83 -2.59, 424.32 0 M424.32 0 C425.46 11.4, 422.53 19.9, 424.32 44 M424.32 0 C424.82 15.35, 424.92 29.74, 424.32 44 M424.32 44 C269.82 45.7, 114.85 46.47, 0 44 M424.32 44 C290.54 42.28, 156.31 42.04, 0 44 M0 44 C1.13 29.7, 1.45 16.6, 0 0 M0 44 C-0.02 32.31, -1.16 21.97, 0 0" stroke="#1e1e1e" stroke-width="2" fill="none"></path></g><g transform="translate(41.68034362792969 219.8685577539298) rotate(0 180.4798126220703 12.5)"><text x="180.4798126220703" y="17.52" font-family="Virgil, Segoe UI Emoji" font-size="20px" fill="#1e1e1e" text-anchor="middle" style="white-space: pre;" direction="ltr" dominant-baseline="alphabetic">Suspicious Activity Detection Module</text></g><g stroke-linecap="round" transform="translate(126.42589539935977 309.2683893969638) rotate(0 96.53515625 22)"><path d="M0 0 C43.04 1.43, 83.88 0.94, 193.07 0 M0 0 C76.36 0.24, 151.3 1.08, 193.07 0 M193.07 0 C191.58 11.18, 194.2 22.25, 193.07 44 M193.07 0 C193.44 16.92, 193.79 34.13, 193.07 44 M193.07 44 C116.94 44.22, 42.36 43.97, 0 44 M193.07 44 C151.69 44.96, 111.47 44.89, 0 44 M0 44 C1.18 33.67, -1.12 25.54, 0 0 M0 44 C-0.96 35.46, -0.21 25.75, 0 0" stroke="#1e1e1e" stroke-width="2" fill="none"></path></g><g transform="translate(146.2111279433051 318.7683893969638) rotate(0 76.74992370605469 12.5)"><text x="76.74992370605469" y="17.52" font-family="Virgil, Segoe UI Emoji" font-size="20px" fill="#1e1e1e" text-anchor="middle" style="white-space: pre;" direction="ltr" dominant-baseline="alphabetic">Security Module</text></g><g stroke-linecap="round"><g transform="translate(222.46727714597682 55) rotate(0 -0.09833371349444064 25.761621941162474)"><path d="M0.35 -0.73 C0.3 7.48, 0.42 41.71, 0.16 50.4 M-0.92 1.5 C-1.15 10.33, -0.95 42.82, -0.6 51.35" stroke="#1e1e1e" stroke-width="2" fill="none"></path></g><g transform="translate(222.46727714597682 55) rotate(0 -0.09833371349444064 25.761621941162474)"><path d="M-9.64 28.04 C-7.56 36.53, -5.15 42.19, -0.6 51.35 M-9.64 28.04 C-6.24 33.88, -4.15 41.96, -0.6 51.35" stroke="#1e1e1e" stroke-width="2" fill="none"></path></g><g transform="translate(222.46727714597682 55) rotate(0 -0.09833371349444064 25.761621941162474)"><path d="M7.46 27.68 C3.73 36.34, 0.34 42.13, -0.6 51.35 M7.46 27.68 C5.89 33.73, 3.02 41.91, -0.6 51.35" stroke="#1e1e1e" stroke-width="2" fill="none"></path></g></g><mask></mask><g stroke-linecap="round"><g transform="translate(222.0823113468898 156.82305638232492) rotate(0 0.02485711109736144 24.122875685802455)"><path d="M0.16 -0.51 C0.07 7.57, -0.33 40.01, -0.4 48.19 M-0.42 0.41 C-0.36 8.62, 0.39 40.99, 0.6 48.86" stroke="#1e1e1e" stroke-width="2" fill="none"></path></g><g transform="translate(222.0823113468898 156.82305638232492) rotate(0 0.02485711109736144 24.122875685802455)"><path d="M-8.2 26.4 C-6.31 32.96, -2.57 40.54, 0.6 48.86 M-8.2 26.4 C-4.75 34.72, -1.43 43.04, 0.6 48.86" stroke="#1e1e1e" stroke-width="2" fill="none"></path></g><g transform="translate(222.0823113468898 156.82305638232492) rotate(0 0.02485711109736144 24.122875685802455)"><path d="M8.3 26 C4.76 32.71, 3.06 40.43, 0.6 48.86 M8.3 26 C5.83 34.39, 3.23 42.86, 0.6 48.86" stroke="#1e1e1e" stroke-width="2" fill="none"></path></g></g><mask></mask><g stroke-linecap="round"><g transform="translate(222.3563345770864 255.3685577539298) rotate(0 0.19360458036032924 24.299884571517026)"><path d="M-0.45 -0.05 C-0.48 8.19, -0.19 40.89, 0.04 48.92 M0.31 -0.56 C0.45 7.57, 1.01 39.95, 1.09 48.12" stroke="#1e1e1e" stroke-width="2" fill="none"></path></g><g transform="translate(222.3563345770864 255.3685577539298) rotate(0 0.19360458036032924 24.299884571517026)"><path d="M-7.54 25.41 C-4.9 32.3, -1.36 41.35, 1.09 48.12 M-7.54 25.41 C-5.3 30.7, -3.74 35.16, 1.09 48.12" stroke="#1e1e1e" stroke-width="2" fill="none"></path></g><g transform="translate(222.3563345770864 255.3685577539298) rotate(0 0.19360458036032924 24.299884571517026)"><path d="M9.08 25.17 C6.24 32.08, 4.29 41.2, 1.09 48.12 M9.08 25.17 C7.78 30.55, 5.82 35.06, 1.09 48.12" stroke="#1e1e1e" stroke-width="2" fill="none"></path></g></g><mask></mask></svg>