<svg version="1.1" xmlns="http://www.w3.org/2000/svg" viewBox="0 0 1206.2643668230196 871.9579093128198" width="2412.528733646039" height="1743.9158186256395">
  <!-- svg-source:excalidraw -->

  <defs>
    <style class="style-fonts">
      @font-face {
        font-family: "Virgil";
        src: url("https://excalidraw.com/Virgil.woff2");
      }
      @font-face {
        font-family: "Cascadia";
        src: url("https://excalidraw.com/Cascadia.woff2");
      }
      @font-face {
        font-family: "Assistant";
        src: url("https://excalidraw.com/Assistant-Regular.woff2");
      }
    </style>

  </defs>
  <rect x="0" y="0" width="1206.2643668230196" height="871.9579093128198" fill="#ffffff"></rect><g stroke-linecap="round" transform="translate(249.00225038357826 672.8072372122087) rotate(0 358.5934128457874 94.57533605030551)"><path d="M1.63 1.5 L715.71 0.24 L715.51 189.8 L1.89 188.25" stroke="none" stroke-width="0" fill="#ffec99"></path><path d="M0 0 C155.83 -0.32, 311.57 -0.43, 717.19 0 M0 0 C263.95 -2.09, 528.59 -1.86, 717.19 0 M717.19 0 C717.5 40.44, 716.89 78.07, 717.19 189.15 M717.19 0 C715.24 38.12, 714.53 74.99, 717.19 189.15 M717.19 189.15 C490.77 189.52, 265.15 190.04, 0 189.15 M717.19 189.15 C526.88 191.34, 337 191.32, 0 189.15 M0 189.15 C-2.91 146.5, -3.21 103.14, 0 0 M0 189.15 C-2.06 133.88, -0.92 78.96, 0 0" stroke="#1e1e1e" stroke-width="2" fill="none"></path></g><g transform="translate(509.4708463348345 677.8072372122087) rotate(0 98.12481689453125 15.982729161914449)"><text x="98.12481689453125" y="22.401393193339302" font-family="Virgil, Segoe UI Emoji" font-size="25.57236665906313px" fill="#1e1e1e" text-anchor="middle" style="white-space: pre;" direction="ltr" dominant-baseline="alphabetic">Security Module</text></g><g stroke-linecap="round" transform="translate(75.73818776257394 446.40085501992695) rotate(0 526.179924712572 72.3636999212656)"><path d="M1.62 0.78 L1053.91 -0.66 L1053.94 144.96 L0.39 145.03" stroke="none" stroke-width="0" fill="#96f2d7"></path><path d="M0 0 C226.3 -1.44, 453.21 -2.32, 1052.36 0 M0 0 C330.92 -3.79, 661.47 -3.87, 1052.36 0 M1052.36 0 C1052.62 48.18, 1049.81 98.82, 1052.36 144.73 M1052.36 0 C1051.73 38.69, 1052.25 77.2, 1052.36 144.73 M1052.36 144.73 C758.95 144.06, 465.5 143.63, 0 144.73 M1052.36 144.73 C678.26 146.25, 304.04 146.79, 0 144.73 M0 144.73 C2.68 110.7, 0.28 76.41, 0 0 M0 144.73 C-0.19 114.72, 0.45 85.45, 0 0" stroke="#1e1e1e" stroke-width="2" fill="none"></path></g><g transform="translate(349.2462374751458 451.40085501992695) rotate(0 252.671875 17.5)"><text x="252.671875" y="24.528" font-family="Virgil, Segoe UI Emoji" font-size="28px" fill="#1e1e1e" text-anchor="middle" style="white-space: pre;" direction="ltr" dominant-baseline="alphabetic">Suspicious Activity Detection Module</text></g><g stroke-linecap="round" transform="translate(10 219.8559214548813) rotate(0 593.1321834115098 62.34730731348833)"><path d="M1.55 -0.66 L1187.84 0.23 L1186.66 124.99 L1.24 125.49" stroke="none" stroke-width="0" fill="#b2f2bb"></path><path d="M0 0 C402.05 -1.75, 802.94 -1.08, 1186.26 0 M0 0 C457.77 1.87, 915.16 1.96, 1186.26 0 M1186.26 0 C1184.95 41.38, 1186.14 82.9, 1186.26 124.69 M1186.26 0 C1187.82 33.95, 1186.62 66.06, 1186.26 124.69 M1186.26 124.69 C847.55 123.98, 510.22 124.4, 0 124.69 M1186.26 124.69 C778.45 121.11, 370.12 120.67, 0 124.69 M0 124.69 C-1.69 83.79, -3.13 38.42, 0 0 M0 124.69 C0.78 84.97, 1.53 46.98, 0 0" stroke="#1e1e1e" stroke-width="2" fill="none"></path></g><g transform="translate(433.3542293099472 224.8559214548813) rotate(0 169.7779541015625 17.5)"><text x="169.7779541015625" y="24.528" font-family="Virgil, Segoe UI Emoji" font-size="28px" fill="#1e1e1e" text-anchor="middle" style="white-space: pre;" direction="ltr" dominant-baseline="alphabetic">Image Processing Module</text></g><g stroke-linecap="round" transform="translate(313.17242991780427 10) rotate(0 278.0224351330769 61.24086946863823)"><path d="M1.58 0.23 L556.44 0.3 L557.29 123.27 L1.53 121.26" stroke="none" stroke-width="0" fill="#ebfbee"></path><path d="M0 0 C179.1 1.93, 358.67 2.6, 556.04 0 M0 0 C141.9 1.31, 283.6 1.68, 556.04 0 M556.04 0 C554.18 25.18, 554.24 54.3, 556.04 122.48 M556.04 0 C557.03 41, 557.1 82.97, 556.04 122.48 M556.04 122.48 C392.58 121.13, 228.58 121.45, 0 122.48 M556.04 122.48 C433.57 123.46, 311.72 124.06, 0 122.48 M0 122.48 C-1.64 78.39, 0.58 34.23, 0 0 M0 122.48 C0.73 94.83, 0.7 66.07, 0 0" stroke="#1e1e1e" stroke-width="2" fill="none"></path></g><g transform="translate(445.81441766318585 15) rotate(0 145.3804473876953 17.323240596836364)"><text x="145.3804473876953" y="24.280254020525845" font-family="Virgil, Segoe UI Emoji" font-size="27.717184954938183px" fill="#1e1e1e" text-anchor="middle" style="white-space: pre;" direction="ltr" dominant-baseline="alphabetic">Camera Input Module</text></g><g stroke-linecap="round" transform="translate(339.99103246196364 51.30163222566205) rotate(0 68.31877026777056 29.89921877617663)"><path d="M0.39 0.3 L137.88 0.79 L138.17 58.58 L0.35 60.41" stroke="none" stroke-width="0" fill="#ebfbee"></path><path d="M0 0 C30.65 1.66, 56.96 1.45, 136.64 0 M0 0 C32.22 1.09, 62.86 -0.32, 136.64 0 M136.64 0 C135.77 16.38, 137.22 32.88, 136.64 59.8 M136.64 0 C136.36 21.36, 136.46 42.66, 136.64 59.8 M136.64 59.8 C104.53 60.41, 69.06 60.45, 0 59.8 M136.64 59.8 C88.73 59.99, 40.49 58.79, 0 59.8 M0 59.8 C0.85 34.85, -0.84 12.32, 0 0 M0 59.8 C0.29 45.56, 0.31 32.1, 0 0" stroke="#1e1e1e" stroke-width="2" fill="none"></path></g><g transform="translate(350.0374638625467 68.85390151219387) rotate(0 58.2723388671875 12.346949489644807)"><text x="58.2723388671875" y="17.30548440468616" font-family="Virgil, Segoe UI Emoji" font-size="19.755119183431688px" fill="#1e1e1e" text-anchor="middle" style="white-space: pre;" direction="ltr" dominant-baseline="alphabetic">CameraType</text></g><g stroke-linecap="round" transform="translate(564.2229126785558 62.21235811128433) rotate(0 129.16066692683114 21.730631101774854)"><path d="M1.24 0.79 L259.85 -1.22 L258.68 44.07 L0.07 44.79" stroke="none" stroke-width="0" fill="#ebfbee"></path><path d="M0 0 C75.58 -0.54, 151.54 -0.94, 258.32 0 M0 0 C64.96 -1.72, 130.91 -1.25, 258.32 0 M258.32 0 C258.97 11.72, 259.41 19.08, 258.32 43.46 M258.32 0 C258.2 9.79, 257.67 21.29, 258.32 43.46 M258.32 43.46 C181.1 44.76, 107.32 43.26, 0 43.46 M258.32 43.46 C195.41 45.21, 132.39 44.64, 0 43.46 M0 43.46 C-1.48 31.72, -1.41 21.35, 0 0 M0 43.46 C0.45 28.85, -0.14 14.15, 0 0" stroke="#1e1e1e" stroke-width="2" fill="none"></path></g><g transform="translate(592.520412796305 71.59603972341438) rotate(0 100.86316680908203 12.346949489644807)"><text x="100.86316680908203" y="17.30548440468616" font-family="Virgil, Segoe UI Emoji" font-size="19.755119183431688px" fill="#1e1e1e" text-anchor="middle" style="white-space: pre;" direction="ltr" dominant-baseline="alphabetic">OpenCV VideoCapture</text></g><g stroke-linecap="round" transform="translate(33.77999950614276 254.0363270342869) rotate(0 159.24253346657656 22.12323807897974)"><path d="M1.53 -1.22 L318.84 0.61 L318.56 45.57 L1.87 42.36" stroke="none" stroke-width="0" fill="#b2f2bb"></path><path d="M0 0 C120.01 -0.93, 241.26 -1.01, 318.49 0 M0 0 C110.07 1.86, 220.18 1.88, 318.49 0 M318.49 0 C319.89 14.88, 317.43 30.32, 318.49 44.25 M318.49 0 C317.88 12.69, 318.4 24.71, 318.49 44.25 M318.49 44.25 C212.7 44.26, 104.64 45.68, 0 44.25 M318.49 44.25 C193.56 42.98, 67.07 43.76, 0 44.25 M0 44.25 C-1.03 35.14, 1.09 24.35, 0 0 M0 44.25 C-0.15 32.58, 0.27 21.02, 0 0" stroke="#1e1e1e" stroke-width="2" fill="none"></path></g><g transform="translate(105.26253846588315 263.58954347748266) rotate(0 87.75999450683594 12.570021635783945)"><text x="87.75999450683594" y="17.618142324714764" font-family="Virgil, Segoe UI Emoji" font-size="20.1120346172543px" fill="#1e1e1e" text-anchor="middle" style="white-space: pre;" direction="ltr" dominant-baseline="alphabetic">Pre-process image</text></g><g stroke-linecap="round" transform="translate(811.5494525335096 261.75166816293375) rotate(0 163.74417246489168 22.12323807897974)"><path d="M0.07 1.33 L329.36 -1.88 L326.81 46 L1.96 42.26" stroke="none" stroke-width="0" fill="#b2f2bb"></path><path d="M0 0 C113.38 -2, 224.18 -1.44, 327.49 0 M0 0 C86.96 1.01, 173.97 1.16, 327.49 0 M327.49 0 C326.7 12.22, 326.05 23.48, 327.49 44.25 M327.49 0 C327.81 14.93, 327.83 32.01, 327.49 44.25 M327.49 44.25 C249.27 46, 168.1 46.58, 0 44.25 M327.49 44.25 C260.79 44.05, 194.93 44.08, 0 44.25 M0 44.25 C-0.83 28.97, 0.06 10.92, 0 0 M0 44.25 C0.49 29.7, -0.1 16.69, 0 0" stroke="#1e1e1e" stroke-width="2" fill="none"></path></g><g transform="translate(903.38031780846 271.3048846061295) rotate(0 71.9133071899414 12.570021635783945)"><text x="71.9133071899414" y="17.618142324714764" font-family="Virgil, Segoe UI Emoji" font-size="20.1120346172543px" fill="#1e1e1e" text-anchor="middle" style="white-space: pre;" direction="ltr" dominant-baseline="alphabetic">Encoding Model</text></g><g stroke-linecap="round" transform="translate(122.55323580753293 508.3287588030501) rotate(0 158.77680933844272 22.759601756612255)"><path d="M1.87 -1.88 L316.88 1.75 L319.52 43.53 L0.82 44.66" stroke="none" stroke-width="0" fill="#96f2d7"></path><path d="M0 0 C106.15 1.25, 214.47 0.77, 317.55 0 M0 0 C85.59 -0.46, 169.65 -1.32, 317.55 0 M317.55 0 C316.27 11.81, 318.55 25.84, 317.55 45.52 M317.55 0 C318.08 16.19, 317.14 30.76, 317.55 45.52 M317.55 45.52 C208.02 48.14, 97.84 46.38, 0 45.52 M317.55 45.52 C218.15 43.46, 119.22 44.2, 0 45.52 M0 45.52 C0.38 28.73, 0.45 12.4, 0 0 M0 45.52 C-0.17 30.37, -0.31 15.27, 0 0" stroke="#1e1e1e" stroke-width="2" fill="none"></path></g><g transform="translate(148.93099729441292 518.3773180828532) rotate(0 132.3990478515625 12.711042476809155)"><text x="132.3990478515625" y="17.815797135495743" font-family="Virgil, Segoe UI Emoji" font-size="20.337667962894685px" fill="#1e1e1e" text-anchor="middle" style="white-space: pre;" direction="ltr" dominant-baseline="alphabetic">SuspiciousActivityDetector</text></g><g stroke-linecap="round" transform="translate(743.8381833707276 505.85628175001335) rotate(0 171.84932208568603 22.371434759184126)"><path d="M1.96 -1.99 L344.52 -0.86 L343.73 46.02 L-1.67 44.63" stroke="none" stroke-width="0" fill="#96f2d7"></path><path d="M0 0 C88.41 2.32, 178.21 3.01, 343.7 0 M0 0 C124.17 1.22, 248.51 1.01, 343.7 0 M343.7 0 C344.83 11.49, 342.34 22.33, 343.7 44.74 M343.7 0 C343.88 16.78, 344 31.41, 343.7 44.74 M343.7 44.74 C207.08 43.37, 69.18 44.21, 0 44.74 M343.7 44.74 C264.28 45.41, 184.36 45.7, 0 44.74 M0 44.74 C0.73 31.98, -1.28 16.5, 0 0 M0 44.74 C0.92 29.01, -0.35 16.03, 0 0" stroke="#1e1e1e" stroke-width="2" fill="none"></path></g><g transform="translate(817.8596093382496 515.5166740323882) rotate(0 97.82789611816406 12.711042476809155)"><text x="97.82789611816406" y="17.815797135495743" font-family="Virgil, Segoe UI Emoji" font-size="20.337667962894685px" fill="#1e1e1e" text-anchor="middle" style="white-space: pre;" direction="ltr" dominant-baseline="alphabetic">Classification model</text></g><g stroke-linecap="round" transform="translate(664.0497127915953 750.6670099514124) rotate(0 83.44966175232037 20.00632108756463)"><path d="M-1.48 0.24 L165.22 0.65 L168.78 39.11 L-1.78 38.37" stroke="none" stroke-width="0" fill="#ffd8a8"></path><path d="M0 0 C53.96 -0.05, 111.46 -0.94, 166.9 0 M0 0 C62.05 0.64, 123.05 0.51, 166.9 0 M166.9 0 C165.89 9.32, 164.83 17.11, 166.9 40.01 M166.9 0 C165.89 13.75, 166.96 27.99, 166.9 40.01 M166.9 40.01 C114.32 42.57, 64.95 42.33, 0 40.01 M166.9 40.01 C106.3 42.12, 44.28 42.05, 0 40.01 M0 40.01 C-1.61 24.55, 0.17 13.96, 0 0 M0 40.01 C0.9 27.31, 0.97 14.48, 0 0" stroke="#1e1e1e" stroke-width="2" fill="none"></path></g><g transform="translate(681.5969087236033 759.3061031483153) rotate(0 65.9024658203125 11.367227890661752)"><text x="65.9024658203125" y="15.932306611551471" font-family="Virgil, Segoe UI Emoji" font-size="18.18756462505876px" fill="#1e1e1e" text-anchor="middle" style="white-space: pre;" direction="ltr" dominant-baseline="alphabetic">Video Capturer</text></g><g stroke-linecap="round" transform="translate(368.4696778618463 750.9276734364494) rotate(0 85.41050856345953 20.00632108756463)"><path d="M1.89 -0.9 L169.04 -1.64 L170.72 39.15 L0.53 41.69" stroke="none" stroke-width="0" fill="#ffd8a8"></path><path d="M0 0 C61.8 -1.78, 120.55 -0.03, 170.82 0 M0 0 C58.72 -0.74, 119.37 -1.05, 170.82 0 M170.82 0 C171.64 11.26, 170.99 21.55, 170.82 40.01 M170.82 0 C170.91 8.28, 171.23 17.56, 170.82 40.01 M170.82 40.01 C103.97 40.73, 36.15 42.14, 0 40.01 M170.82 40.01 C107.23 40.35, 42.47 40.2, 0 40.01 M0 40.01 C0.6 30.33, 0.13 23.7, 0 0 M0 40.01 C-1.07 26.37, -1.17 12.81, 0 0" stroke="#1e1e1e" stroke-width="2" fill="none"></path></g><g transform="translate(385.34161983595027 759.5667666333522) rotate(0 68.53856658935547 11.367227890661752)"><text x="68.53856658935547" y="15.932306611551471" font-family="Virgil, Segoe UI Emoji" font-size="18.18756462505876px" fill="#1e1e1e" text-anchor="middle" style="white-space: pre;" direction="ltr" dominant-baseline="alphabetic">Security Logger</text></g><g stroke-linecap="round"><g transform="translate(477.62857299750476 76.05184068847127) rotate(0 40.4325232220591 1.136370941492146)"><path d="M-0.7 0.67 C0.07 0.89, -0.48 0.9, 4.6 0.65 C9.68 0.4, 17 -1.21, 29.78 -0.83 C42.57 -0.46, 72.9 2.51, 81.3 2.92 M1.13 -0.03 C1.75 -0.1, -1.07 -1.19, 3.62 -1.19 C8.3 -1.19, 16.21 -0.34, 29.23 -0.02 C42.26 0.29, 72.98 0.42, 81.78 0.7" stroke="#1e1e1e" stroke-width="2" fill="none"></path></g><g transform="translate(477.62857299750476 76.05184068847127) rotate(0 40.4325232220591 1.136370941492146)"><path d="M58.14 8.85 C66.27 6.46, 73 4.87, 81.78 0.7 M58.14 8.85 C62.74 6.38, 68.95 6.08, 81.78 0.7" stroke="#1e1e1e" stroke-width="2" fill="none"></path></g><g transform="translate(477.62857299750476 76.05184068847127) rotate(0 40.4325232220591 1.136370941492146)"><path d="M58.44 -8.25 C66.38 -5.6, 73.03 -2.15, 81.78 0.7 M58.44 -8.25 C63.03 -6.96, 69.17 -3.5, 81.78 0.7" stroke="#1e1e1e" stroke-width="2" fill="none"></path></g></g><mask></mask><g stroke-linecap="round"><g transform="translate(353.26506643929565 284.87257979753747) rotate(0 223.73172376038724 0.6715013121780942)"><path d="M-0.07 0.53 C4.14 0.48, 16.26 0.14, 24.55 0.38 C32.85 0.62, 41.52 1.94, 49.72 1.99 C57.92 2.04, 7.36 0.74, 73.73 0.69 C140.11 0.63, 385.59 1.72, 447.99 1.64 M-1.57 -0.24 C2.58 -0.23, 15.37 1.38, 23.82 1.41 C32.28 1.45, 40.88 -0.02, 49.18 -0.01 C57.48 -0.01, 7.35 1.62, 73.62 1.45 C139.89 1.28, 384.69 -0.63, 446.79 -1.03" stroke="#1e1e1e" stroke-width="2" fill="none"></path></g><g transform="translate(353.26506643929565 284.87257979753747) rotate(0 223.73172376038724 0.6715013121780942)"><path d="M423.36 7.68 C429.85 6.28, 433.02 4.22, 446.79 -1.03 M423.36 7.68 C432.14 5.67, 440.55 1.39, 446.79 -1.03" stroke="#1e1e1e" stroke-width="2" fill="none"></path></g><g transform="translate(353.26506643929565 284.87257979753747) rotate(0 223.73172376038724 0.6715013121780942)"><path d="M423.24 -9.42 C429.85 -6.69, 433.06 -4.62, 446.79 -1.03 M423.24 -9.42 C431.96 -5.38, 440.42 -3.61, 446.79 -1.03" stroke="#1e1e1e" stroke-width="2" fill="none"></path></g></g><mask></mask><g stroke-linecap="round"><g transform="translate(597.5672318081326 142.79749931960248) rotate(0 0.7802797381051505 34.473899049784436)"><path d="M0.94 0.18 C1.36 11.66, 1.59 57.98, 1.56 69.56 M-0.02 -0.77 C0.32 10.3, 0.07 56.35, 0.61 67.75" stroke="#1e1e1e" stroke-width="2" fill="none"></path></g><g transform="translate(597.5672318081326 142.79749931960248) rotate(0 0.7802797381051505 34.473899049784436)"><path d="M-8.35 44.42 C-5.93 49.51, -3.24 53.38, 0.61 67.75 M-8.35 44.42 C-4.39 52.07, -0.83 60.82, 0.61 67.75" stroke="#1e1e1e" stroke-width="2" fill="none"></path></g><g transform="translate(597.5672318081326 142.79749931960248) rotate(0 0.7802797381051505 34.473899049784436)"><path d="M8.75 44.11 C7.39 49.41, 6.3 53.34, 0.61 67.75 M8.75 44.11 C6.62 51.75, 4.08 60.61, 0.61 67.75" stroke="#1e1e1e" stroke-width="2" fill="none"></path></g></g><mask></mask><g stroke-linecap="round"><g transform="translate(604.3837771637859 356.92559155500584) rotate(0 -0.5382356240215813 36.589846968095685)"><path d="M0.87 -1.02 C0.82 11.23, -0.51 60.2, -0.98 72.75 M-0.13 1.06 C-0.27 13.54, -1.99 62.16, -1.88 74.07" stroke="#1e1e1e" stroke-width="2" fill="none"></path></g><g transform="translate(604.3837771637859 356.92559155500584) rotate(0 -0.5382356240215813 36.589846968095685)"><path d="M-10.05 50.44 C-9.91 56.31, -6.92 60.5, -1.88 74.07 M-10.05 50.44 C-7.61 58.75, -3.9 68.37, -1.88 74.07" stroke="#1e1e1e" stroke-width="2" fill="none"></path></g><g transform="translate(604.3837771637859 356.92559155500584) rotate(0 -0.5382356240215813 36.589846968095685)"><path d="M7.05 50.72 C3.02 56.64, 1.83 60.77, -1.88 74.07 M7.05 50.72 C2.8 59.08, -0.18 68.59, -1.88 74.07" stroke="#1e1e1e" stroke-width="2" fill="none"></path></g></g><mask></mask><g stroke-linecap="round"><g transform="translate(610.0174369881715 599.1184495593495) rotate(0 0.02983830970413237 31.75964861664022)"><path d="M-1.18 0.82 C-0.99 11.55, 0.56 52.71, 0.64 63.22 M0.41 0.2 C0.53 11.21, -0.23 54.35, 0 64.61" stroke="#1e1e1e" stroke-width="2" fill="none"></path></g><g transform="translate(610.0174369881715 599.1184495593495) rotate(0 0.02983830970413237 31.75964861664022)"><path d="M-8.54 41.11 C-5.18 48.29, -4.8 52.19, 0 64.61 M-8.54 41.11 C-6.57 48.68, -2.75 57.45, 0 64.61" stroke="#1e1e1e" stroke-width="2" fill="none"></path></g><g transform="translate(610.0174369881715 599.1184495593495) rotate(0 0.02983830970413237 31.75964861664022)"><path d="M8.56 41.12 C7.46 48.13, 3.37 52.03, 0 64.61 M8.56 41.12 C4.88 48.75, 3.05 57.52, 0 64.61" stroke="#1e1e1e" stroke-width="2" fill="none"></path></g></g><mask></mask><g stroke-linecap="round"><g transform="translate(449.95017954578634 521.2614002198496) rotate(0 146.44400191247064 0.030801552723517034)"><path d="M1.02 -0.34 C49.82 -0.68, 245 -1.07, 293.78 -1.07 M0.09 -1.56 C48.73 -1.28, 244.43 -0.51, 293.31 -0.13" stroke="#1e1e1e" stroke-width="2" fill="none"></path></g><g transform="translate(449.95017954578634 521.2614002198496) rotate(0 146.44400191247064 0.030801552723517034)"><path d="M269.77 8.29 C278.1 6.38, 285.74 3.03, 293.31 -0.13 M269.77 8.29 C276.06 6.44, 281.72 4, 293.31 -0.13" stroke="#1e1e1e" stroke-width="2" fill="none"></path></g><g transform="translate(449.95017954578634 521.2614002198496) rotate(0 146.44400191247064 0.030801552723517034)"><path d="M269.86 -8.81 C278.3 -4.21, 285.91 -1.04, 293.31 -0.13 M269.86 -8.81 C275.97 -6.13, 281.61 -4.05, 293.31 -0.13" stroke="#1e1e1e" stroke-width="2" fill="none"></path></g></g><mask></mask></svg>
