<svg version="1.1" xmlns="http://www.w3.org/2000/svg" viewBox="0 0 1525.7739250074592 875.6080504458462" width="3051.5478500149184" height="1751.2161008916923">
  <!-- svg-source:excalidraw -->

  <defs>
    <style class="style-fonts">
      @font-face {
        font-family: "Virgil";
        src: url("https://excalidraw.com/Virgil.woff2");
      }
      @font-face {
        font-family: "Cascadia";
        src: url("https://excalidraw.com/Cascadia.woff2");
      }
      @font-face {
        font-family: "Assistant";
        src: url("https://excalidraw.com/Assistant-Regular.woff2");
      }
    </style>

  </defs>
  <rect x="0" y="0" width="1525.7739250074592" height="875.6080504458462" fill="#ffffff"></rect><g stroke-linecap="round" transform="translate(375.97000627653847 657.6080504458462) rotate(0 394.328125 104)"><path d="M1.63 1.5 L787.18 0.24 L786.98 208.65 L1.89 207.1" stroke="none" stroke-width="0" fill="#38d9a9"></path><path d="M0 0 C171.37 -0.4, 342.66 -0.51, 788.66 0 M0 0 C290.29 -2.29, 581.26 -2.06, 788.66 0 M788.66 0 C788.99 44.19, 788.45 85.88, 788.66 208 M788.66 0 C786.77 41.86, 786.15 82.61, 788.66 208 M788.66 208 C539.75 208.38, 291.65 208.9, 0 208 M788.66 208 C579.4 210.38, 370.57 210.35, 0 208 M0 208 C-2.69 161.19, -2.96 113.75, 0 0 M0 208 C-1.97 147.22, -0.96 86.73, 0 0" stroke="#1e1e1e" stroke-width="2" fill="none"></path></g><g transform="translate(693.5482075704838 662.6080504458462) rotate(0 76.74992370605469 12.5)"><text x="76.74992370605469" y="17.52" font-family="Virgil, Segoe UI Emoji" font-size="20px" fill="#1e1e1e" text-anchor="middle" style="white-space: pre;" direction="ltr" dominant-baseline="alphabetic">Security Module</text></g><g stroke-linecap="round" transform="translate(10 446.9209723749782) rotate(0 752.8869625037296 63.80943323358207)"><path d="M1.62 0.78 L1507.32 -0.66 L1507.35 127.85 L0.39 127.92" stroke="none" stroke-width="0" fill="#96f2d7"></path><path d="M0 0 C323.8 -2.14, 648.21 -3.02, 1505.77 0 M0 0 C473.36 -5.34, 946.35 -5.43, 1505.77 0 M1505.77 0 C1506.12 42.29, 1503.3 87.04, 1505.77 127.62 M1505.77 0 C1505.27 34.16, 1505.79 68.15, 1505.77 127.62 M1505.77 127.62 C1086.04 126.68, 666.26 126.25, 0 127.62 M1505.77 127.62 C970.44 129.94, 434.97 130.48, 0 127.62 M0 127.62 C2.59 97.74, 0.18 67.61, 0 0 M0 127.62 C-0.23 101.07, 0.41 75.27, 0 0" stroke="#1e1e1e" stroke-width="2" fill="none"></path></g><g transform="translate(579.4291377966983 451.9209723749782) rotate(0 183.45782470703125 12.711042476809183)"><text x="183.45782470703125" y="17.815797135495743" font-family="Virgil, Segoe UI Emoji" font-size="20.337667962894685px" fill="#1e1e1e" text-anchor="middle" style="white-space: pre;" direction="ltr" dominant-baseline="alphabetic">Suspicious Activity Detection Module</text></g><g stroke-linecap="round" transform="translate(163.7892198505897 220.01413875217986) rotate(0 593.1321834115098 62.34730731348833)"><path d="M1.55 -0.66 L1187.84 0.23 L1186.66 124.99 L1.24 125.49" stroke="none" stroke-width="0" fill="#b2f2bb"></path><path d="M0 0 C402.05 -1.75, 802.94 -1.08, 1186.26 0 M0 0 C457.77 1.87, 915.16 1.96, 1186.26 0 M1186.26 0 C1184.95 41.38, 1186.14 82.9, 1186.26 124.69 M1186.26 0 C1187.82 33.95, 1186.62 66.06, 1186.26 124.69 M1186.26 124.69 C847.55 123.98, 510.22 124.4, 0 124.69 M1186.26 124.69 C778.45 121.11, 370.12 120.67, 0 124.69 M0 124.69 C-1.69 83.79, -3.13 38.42, 0 0 M0 124.69 C0.78 84.97, 1.53 46.98, 0 0" stroke="#1e1e1e" stroke-width="2" fill="none"></path></g><g transform="translate(634.9844907254783 225.01413875217986) rotate(0 121.9369125366211 12.570021635783931)"><text x="121.9369125366211" y="17.618142324714764" font-family="Virgil, Segoe UI Emoji" font-size="20.1120346172543px" fill="#1e1e1e" text-anchor="middle" style="white-space: pre;" direction="ltr" dominant-baseline="alphabetic">Image Processing Module</text></g><g stroke-linecap="round" transform="translate(468.3275306315247 10) rotate(0 281.46875 62)"><path d="M1.58 0.23 L563.33 0.3 L564.18 124.79 L1.53 122.78" stroke="none" stroke-width="0" fill="#ebfbee"></path><path d="M0 0 C181.32 1.95, 363.1 2.63, 562.94 0 M0 0 C143.66 1.32, 287.11 1.69, 562.94 0 M562.94 0 C561.06 25.51, 561.11 54.96, 562.94 124 M562.94 0 C563.94 41.51, 564.01 84, 562.94 124 M562.94 124 C397.44 122.63, 231.41 122.96, 0 124 M562.94 124 C438.95 124.99, 315.59 125.59, 0 124 M0 124 C-1.63 79.37, 0.58 34.67, 0 0 M0 124 C0.73 96, 0.7 66.89, 0 0" stroke="#1e1e1e" stroke-width="2" fill="none"></path></g><g transform="translate(644.8663642496888 15) rotate(0 104.92991638183594 12.5)"><text x="104.92991638183594" y="17.52" font-family="Virgil, Segoe UI Emoji" font-size="20px" fill="#1e1e1e" text-anchor="middle" style="white-space: pre;" direction="ltr" dominant-baseline="alphabetic">Camera Input Module</text></g><g stroke-linecap="round" transform="translate(493.3275306315247 45) rotate(0 60.61328125 22)"><path d="M0.39 0.3 L122.47 0.79 L122.76 42.78 L0.35 44.61" stroke="none" stroke-width="0" fill="#ebfbee"></path><path d="M0 0 C27.38 1.65, 50.44 1.44, 121.23 0 M0 0 C28.63 1.02, 55.67 -0.39, 121.23 0 M121.23 0 C120.42 12.29, 121.87 24.71, 121.23 44 M121.23 0 C120.98 15.65, 121.08 31.24, 121.23 44 M121.23 44 C92.84 44.62, 61.09 44.66, 0 44 M121.23 44 C78.77 44.28, 35.99 43.08, 0 44 M0 44 C0.69 25.34, -0.99 9.1, 0 0 M0 44 C0.42 33.44, 0.43 23.65, 0 0" stroke="#1e1e1e" stroke-width="2" fill="none"></path></g><g transform="translate(506.00084758709113 54.5) rotate(0 47.939964294433594 12.5)"><text x="47.939964294433594" y="17.52" font-family="Virgil, Segoe UI Emoji" font-size="20px" fill="#1e1e1e" text-anchor="middle" style="white-space: pre;" direction="ltr" dominant-baseline="alphabetic">IPCamera</text></g><g stroke-linecap="round" transform="translate(717.1478431315247 55) rotate(0 130.76171875 22)"><path d="M1.24 0.79 L263.06 -1.22 L261.88 44.61 L0.07 45.33" stroke="none" stroke-width="0" fill="#ebfbee"></path><path d="M0 0 C76.53 -0.56, 153.44 -0.96, 261.52 0 M0 0 C65.78 -1.72, 132.54 -1.25, 261.52 0 M261.52 0 C262.17 11.84, 262.61 19.32, 261.52 44 M261.52 0 C261.41 9.92, 260.87 21.55, 261.52 44 M261.52 44 C183.37 45.3, 108.63 43.81, 0 44 M261.52 44 C197.82 45.76, 134.01 45.19, 0 44 M0 44 C-1.48 32.11, -1.41 21.6, 0 0 M0 44 C0.45 29.2, -0.15 14.33, 0 0" stroke="#1e1e1e" stroke-width="2" fill="none"></path></g><g transform="translate(745.7696540446107 64.5) rotate(0 102.13990783691406 12.5)"><text x="102.13990783691406" y="17.52" font-family="Virgil, Segoe UI Emoji" font-size="20px" fill="#1e1e1e" text-anchor="middle" style="white-space: pre;" direction="ltr" dominant-baseline="alphabetic">OpenCV VideoCapture</text></g><g stroke-linecap="round" transform="translate(188.9292631221574 255.21019933237494) rotate(0 159.24253346657656 22.12323807897974)"><path d="M1.53 -1.22 L318.84 0.61 L318.56 45.57 L1.87 42.36" stroke="none" stroke-width="0" fill="#b2f2bb"></path><path d="M0 0 C120.01 -0.93, 241.26 -1.01, 318.49 0 M0 0 C110.07 1.86, 220.18 1.88, 318.49 0 M318.49 0 C319.89 14.88, 317.43 30.32, 318.49 44.25 M318.49 0 C317.88 12.69, 318.4 24.71, 318.49 44.25 M318.49 44.25 C212.7 44.26, 104.64 45.68, 0 44.25 M318.49 44.25 C193.56 42.98, 67.07 43.76, 0 44.25 M0 44.25 C-1.03 35.14, 1.09 24.35, 0 0 M0 44.25 C-0.15 32.58, 0.27 21.02, 0 0" stroke="#1e1e1e" stroke-width="2" fill="none"></path></g><g transform="translate(219.0254495428353 264.7634157755707) rotate(0 129.14634704589844 12.570021635783945)"><text x="129.14634704589844" y="17.618142324714764" font-family="Virgil, Segoe UI Emoji" font-size="20.1120346172543px" fill="#1e1e1e" text-anchor="middle" style="white-space: pre;" direction="ltr" dominant-baseline="alphabetic">MoondreamImageProcessor</text></g><g stroke-linecap="round" transform="translate(641.2300666317531 265.2662166410021) rotate(0 123.75971926781529 22.12323807897974)"><path d="M0.35 0.61 L247.59 1.33 L249.39 42.36 L-0.68 46" stroke="none" stroke-width="0" fill="#b2f2bb"></path><path d="M0 0 C90.66 -0.27, 183.6 -2.25, 247.52 0 M0 0 C50.25 0.45, 102.12 1.05, 247.52 0 M247.52 0 C246.56 17.33, 247.28 35.14, 247.52 44.25 M247.52 0 C247.2 11.13, 247.61 20.59, 247.52 44.25 M247.52 44.25 C163.33 43.8, 82.48 44, 0 44.25 M247.52 44.25 C179.42 42.37, 111.29 41.68, 0 44.25 M0 44.25 C1.08 32.25, -0.36 18.73, 0 0 M0 44.25 C0.54 30.86, 0.68 16.08, 0 0" stroke="#1e1e1e" stroke-width="2" fill="none"></path></g><g transform="translate(660.8602845567948 274.81943308419784) rotate(0 104.12950134277344 12.570021635783945)"><text x="104.12950134277344" y="17.618142324714764" font-family="Virgil, Segoe UI Emoji" font-size="20.1120346172543px" fill="#1e1e1e" text-anchor="middle" style="white-space: pre;" direction="ltr" dominant-baseline="alphabetic">Transformers Library</text></g><g stroke-linecap="round" transform="translate(997.425198472258 265.2662166410021) rotate(0 163.74417246489168 22.12323807897974)"><path d="M0.07 1.33 L329.36 -1.88 L326.81 46 L1.96 42.26" stroke="none" stroke-width="0" fill="#b2f2bb"></path><path d="M0 0 C113.38 -2, 224.18 -1.44, 327.49 0 M0 0 C86.96 1.01, 173.97 1.16, 327.49 0 M327.49 0 C326.7 12.22, 326.05 23.48, 327.49 44.25 M327.49 0 C327.81 14.93, 327.83 32.01, 327.49 44.25 M327.49 44.25 C249.27 46, 168.1 46.58, 0 44.25 M327.49 44.25 C260.79 44.05, 194.93 44.08, 0 44.25 M0 44.25 C-0.83 28.97, 0.06 10.92, 0 0 M0 44.25 C0.49 29.7, -0.1 16.69, 0 0" stroke="#1e1e1e" stroke-width="2" fill="none"></path></g><g transform="translate(1032.0733168600013 274.81943308419784) rotate(0 129.09605407714844 12.570021635783945)"><text x="129.09605407714844" y="17.618142324714764" font-family="Virgil, Segoe UI Emoji" font-size="20.1120346172543px" fill="#1e1e1e" text-anchor="middle" style="white-space: pre;" direction="ltr" dominant-baseline="alphabetic">Moondream Encoding Model</text></g><g stroke-linecap="round" transform="translate(31.79724727838675 489.17201979223216) rotate(0 158.77680933844272 22.371434759184183)"><path d="M1.87 -1.88 L316.88 1.75 L319.52 42.75 L0.82 43.89" stroke="none" stroke-width="0" fill="#96f2d7"></path><path d="M0 0 C106.15 1.25, 214.47 0.77, 317.55 0 M0 0 C85.59 -0.46, 169.65 -1.32, 317.55 0 M317.55 0 C316.27 11.59, 318.55 25.39, 317.55 44.74 M317.55 0 C318.07 15.93, 317.14 30.23, 317.55 44.74 M317.55 44.74 C208.02 47.36, 97.84 45.6, 0 44.74 M317.55 44.74 C218.15 42.68, 119.22 43.43, 0 44.74 M0 44.74 C0.38 28.25, 0.45 12.21, 0 0 M0 44.74 C-0.17 29.86, -0.31 15.02, 0 0" stroke="#1e1e1e" stroke-width="2" fill="none"></path></g><g transform="translate(58.17500876526674 498.83241207460713) rotate(0 132.3990478515625 12.711042476809183)"><text x="132.3990478515625" y="17.815797135495743" font-family="Virgil, Segoe UI Emoji" font-size="20.337667962894685px" fill="#1e1e1e" text-anchor="middle" style="white-space: pre;" direction="ltr" dominant-baseline="alphabetic">SuspiciousActivityDetector</text></g><g stroke-linecap="round" transform="translate(471.86942662861657 500.86617887089665) rotate(0 119.32888345182016 22.371434759184126)"><path d="M-0.68 1.75 L240.62 -1.99 L239.48 43.89 L0.03 46.02" stroke="none" stroke-width="0" fill="#96f2d7"></path><path d="M0 0 C51.41 -0.44, 103.46 1.6, 238.66 0 M0 0 C80.9 -1.74, 162.04 -1.44, 238.66 0 M238.66 0 C239.51 13.07, 239.28 27.07, 238.66 44.74 M238.66 0 C238.25 9.29, 239.26 20.62, 238.66 44.74 M238.66 44.74 C152.17 46.25, 69.17 45.73, 0 44.74 M238.66 44.74 C184.69 43.72, 130.02 43.12, 0 44.74 M0 44.74 C0.25 29.03, 0.74 12.37, 0 0 M0 44.74 C-0.04 34.71, 0.85 22.4, 0 0" stroke="#1e1e1e" stroke-width="2" fill="none"></path></g><g transform="translate(492.9637977513353 510.5265711532716) rotate(0 98.23451232910156 12.711042476809183)"><text x="98.23451232910156" y="17.815797135495743" font-family="Virgil, Segoe UI Emoji" font-size="20.337667962894685px" fill="#1e1e1e" text-anchor="middle" style="white-space: pre;" direction="ltr" dominant-baseline="alphabetic">Question Generator</text></g><g stroke-linecap="round" transform="translate(833.0457542056015 500.86617887089665) rotate(0 171.84932208568603 22.371434759184126)"><path d="M1.96 -1.99 L344.52 -0.86 L343.73 46.02 L-1.67 44.63" stroke="none" stroke-width="0" fill="#96f2d7"></path><path d="M0 0 C88.41 2.32, 178.21 3.01, 343.7 0 M0 0 C124.17 1.22, 248.51 1.01, 343.7 0 M343.7 0 C344.83 11.49, 342.34 22.33, 343.7 44.74 M343.7 0 C343.88 16.78, 344 31.41, 343.7 44.74 M343.7 44.74 C207.08 43.37, 69.18 44.21, 0 44.74 M343.7 44.74 C264.28 45.41, 184.36 45.7, 0 44.74 M0 44.74 C0.73 31.98, -1.28 16.5, 0 0 M0 44.74 C0.92 29.01, -0.35 16.03, 0 0" stroke="#1e1e1e" stroke-width="2" fill="none"></path></g><g transform="translate(869.4465289280063 510.5265711532716) rotate(0 135.44854736328125 12.711042476809183)"><text x="135.44854736328125" y="17.815797135495743" font-family="Virgil, Segoe UI Emoji" font-size="20.337667962894685px" fill="#1e1e1e" text-anchor="middle" style="white-space: pre;" direction="ltr" dominant-baseline="alphabetic">Moondream Answering Model</text></g><g stroke-linecap="round" transform="translate(1253.0106532378288 500.86617887089665) rotate(0 116.85817457039036 22.371434759184126)"><path d="M0.82 -0.86 L233.75 1.28 L232.05 44.63 L0.68 43.94" stroke="none" stroke-width="0" fill="#96f2d7"></path><path d="M0 0 C53.11 0.75, 105.92 -1.27, 233.72 0 M0 0 C55.72 0.02, 111.03 0.98, 233.72 0 M233.72 0 C232.31 13.88, 234.99 25.16, 233.72 44.74 M233.72 0 C234.47 10.72, 234.89 20.97, 233.72 44.74 M233.72 44.74 C168.72 43.71, 104.98 44.97, 0 44.74 M233.72 44.74 C155.17 44.19, 75.47 44.22, 0 44.74 M0 44.74 C-1.39 28.89, 0.44 12.4, 0 0 M0 44.74 C-0.76 29.22, 0.56 10.96, 0 0" stroke="#1e1e1e" stroke-width="2" fill="none"></path></g><g transform="translate(1275.9951171758948 510.5265711532716) rotate(0 93.87371063232422 12.711042476809183)"><text x="93.87371063232422" y="17.815797135495743" font-family="Virgil, Segoe UI Emoji" font-size="20.337667962894685px" fill="#1e1e1e" text-anchor="middle" style="white-space: pre;" direction="ltr" dominant-baseline="alphabetic">Activity Recognizer</text></g><g stroke-linecap="round" transform="translate(472.03641252653847 786.6080504458462) rotate(0 91.765625 22)"><path d="M-1.48 0.24 L181.85 0.65 L185.42 43.1 L-1.78 42.36" stroke="none" stroke-width="0" fill="#38d9a9"></path><path d="M0 0 C59.44 -0.16, 122.43 -1.06, 183.53 0 M0 0 C68.23 0.66, 135.4 0.52, 183.53 0 M183.53 0 C182.52 10.26, 181.46 19, 183.53 44 M183.53 0 C182.51 15.19, 183.58 30.87, 183.53 44 M183.53 44 C125.91 46.62, 71.49 46.37, 0 44 M183.53 44 C116.86 46.24, 48.77 46.17, 0 44 M0 44 C-1.57 27.15, 0.21 15.17, 0 0 M0 44 C0.92 29.99, 0.99 15.84, 0 0" stroke="#1e1e1e" stroke-width="2" fill="none"></path></g><g transform="translate(491.30210619108925 796.1080504458462) rotate(0 72.49993133544922 12.5)"><text x="72.49993133544922" y="17.52" font-family="Virgil, Segoe UI Emoji" font-size="20px" fill="#1e1e1e" text-anchor="middle" style="white-space: pre;" direction="ltr" dominant-baseline="alphabetic">Video Capturer</text></g><g stroke-linecap="round" transform="translate(893.1145375265385 786.6080504458462) rotate(0 77.515625 22)"><path d="M-1.68 0.65 L156.92 -0.9 L153.25 42.36 L-0.1 43.14" stroke="none" stroke-width="0" fill="#38d9a9"></path><path d="M0 0 C58.25 -0.66, 115.19 -2.47, 155.03 0 M0 0 C44.01 -0.4, 89.25 -0.9, 155.03 0 M155.03 0 C152.83 14.29, 156.04 31.82, 155.03 44 M155.03 0 C154.77 13.57, 154.66 27.93, 155.03 44 M155.03 44 C102.43 47.27, 52.53 44.77, 0 44 M155.03 44 C95.15 45.84, 37.28 44.35, 0 44 M0 44 C0.27 33.49, 0.99 18.68, 0 0 M0 44 C0.49 31.33, -1.07 17.29, 0 0" stroke="#1e1e1e" stroke-width="2" fill="none"></path></g><g transform="translate(912.2002156271244 796.1080504458462) rotate(0 58.42994689941406 12.5)"><text x="58.42994689941406" y="17.52" font-family="Virgil, Segoe UI Emoji" font-size="20px" fill="#1e1e1e" text-anchor="middle" style="white-space: pre;" direction="ltr" dominant-baseline="alphabetic">Video Writer</text></g><g stroke-linecap="round" transform="translate(469.88016252653847 692.6080504458462) rotate(0 93.921875 22)"><path d="M1.89 -0.9 L186.06 -1.64 L187.74 43.14 L0.53 45.67" stroke="none" stroke-width="0" fill="#38d9a9"></path><path d="M0 0 C67.82 -1.8, 132.58 -0.04, 187.84 0 M0 0 C64.63 -0.8, 131.2 -1.11, 187.84 0 M187.84 0 C188.62 12.43, 187.98 23.88, 187.84 44 M187.84 0 C187.94 9.2, 188.26 19.41, 187.84 44 M187.84 44 C114.2 44.87, 39.59 46.28, 0 44 M187.84 44 C117.87 44.46, 46.72 44.3, 0 44 M0 44 C0.6 33.43, 0.13 25.91, 0 0 M0 44 C-1.1 28.98, -1.2 14.05, 0 0" stroke="#1e1e1e" stroke-width="2" fill="none"></path></g><g transform="translate(488.4021122946049 702.1080504458462) rotate(0 75.3999252319336 12.5)"><text x="75.3999252319336" y="17.52" font-family="Virgil, Segoe UI Emoji" font-size="20px" fill="#1e1e1e" text-anchor="middle" style="white-space: pre;" direction="ltr" dominant-baseline="alphabetic">Security Logger</text></g><g stroke-linecap="round" transform="translate(867.1457875265385 692.6080504458462) rotate(0 103.484375 22)"><path d="M-1.78 -1.64 L206.87 -0.86 L207.5 45.67 L-1.84 45.26" stroke="none" stroke-width="0" fill="#38d9a9"></path><path d="M0 0 C63.69 1.61, 128.59 -0.15, 206.97 0 M0 0 C69.69 -0.11, 138.14 -0.58, 206.97 0 M206.97 0 C207.81 7.32, 205.87 18.63, 206.97 44 M206.97 0 C207.33 8.33, 207.97 18.27, 206.97 44 M206.97 44 C128.37 43.87, 48.21 41.93, 0 44 M206.97 44 C130.69 41.64, 54.09 42.43, 0 44 M0 44 C-0.03 28.42, 0.75 11.48, 0 0 M0 44 C-0.51 27.83, 1.27 10.56, 0 0" stroke="#1e1e1e" stroke-width="2" fill="none"></path></g><g transform="translate(882.1302311910893 702.1080504458462) rotate(0 88.49993133544922 12.5)"><text x="88.49993133544922" y="17.52" font-family="Virgil, Segoe UI Emoji" font-size="20px" fill="#1e1e1e" text-anchor="middle" style="white-space: pre;" direction="ltr" dominant-baseline="alphabetic">Mistral 7B Logger</text></g><g stroke-linecap="round"><g transform="translate(615.0545306315248 74.08000000000004) rotate(0 48.14650000000006 1.4599999999999795)"><path d="M-0.7 0.67 C3.38 1.36, 15.99 3.23, 24.43 3.45 C32.86 3.66, 37.86 1.94, 49.91 1.96 C61.96 1.98, 89.12 3.52, 96.73 3.57 M1.13 -0.03 C5.05 0.36, 15.4 1.13, 23.44 1.6 C31.48 2.07, 37.07 2.81, 49.37 2.77 C61.66 2.73, 89.2 1.43, 97.21 1.35" stroke="#1e1e1e" stroke-width="2" fill="none"></path></g><g transform="translate(615.0545306315248 74.08000000000004) rotate(0 48.14650000000006 1.4599999999999795)"><path d="M75.46 9.98 C83.04 7.44, 89.21 5.71, 97.21 1.35 M75.46 9.98 C79.64 7.42, 85.43 7.01, 97.21 1.35" stroke="#1e1e1e" stroke-width="2" fill="none"></path></g><g transform="translate(615.0545306315248 74.08000000000004) rotate(0 48.14650000000006 1.4599999999999795)"><path d="M75 -6.02 C82.62 -3.84, 88.93 -0.85, 97.21 1.35 M75 -6.02 C79.34 -5.06, 85.23 -1.95, 97.21 1.35" stroke="#1e1e1e" stroke-width="2" fill="none"></path></g></g><mask></mask><g stroke-linecap="round"><g transform="translate(508.4143300553103 286.0464520956255) rotate(0 63.49171754388169 0.6715013121780942)"><path d="M-0.07 0.53 C4.14 0.48, 16.26 0.14, 24.55 0.38 C32.85 0.62, 41.52 1.94, 49.72 1.99 C57.92 2.04, 60.77 0.61, 73.73 0.69 C86.7 0.77, 118.52 2.42, 127.51 2.48 M-1.57 -0.24 C2.58 -0.23, 15.37 1.38, 23.82 1.41 C32.28 1.45, 40.88 -0.02, 49.18 -0.01 C57.48 -0.01, 60.77 1.48, 73.62 1.45 C86.48 1.41, 117.63 0.07, 126.31 -0.2" stroke="#1e1e1e" stroke-width="2" fill="none"></path></g><g transform="translate(508.4143300553103 286.0464520956255) rotate(0 63.49171754388169 0.6715013121780942)"><path d="M103.15 9.21 C109.57 7.64, 112.68 5.41, 126.31 -0.2 M103.15 9.21 C111.84 6.95, 120.15 2.42, 126.31 -0.2" stroke="#1e1e1e" stroke-width="2" fill="none"></path></g><g transform="translate(508.4143300553103 286.0464520956255) rotate(0 63.49171754388169 0.6715013121780942)"><path d="M102.52 -7.88 C109.19 -5.32, 112.45 -3.43, 126.31 -0.2 M102.52 -7.88 C111.34 -4.09, 119.87 -2.57, 126.31 -0.2" stroke="#1e1e1e" stroke-width="2" fill="none"></path></g></g><mask></mask><g stroke-linecap="round"><g transform="translate(889.7495051673834 287.3894547199818) rotate(0 50.92172733315181 0)"><path d="M0.41 -0.96 C10.07 -0.94, 41.04 0.6, 57.83 0.65 C74.62 0.7, 93.73 -0.74, 101.16 -0.66 M-0.83 1.15 C8.71 0.77, 40.31 -1, 57.12 -1.14 C73.93 -1.28, 92.4 0.26, 100.03 0.32" stroke="#1e1e1e" stroke-width="2" fill="none"></path></g><g transform="translate(889.7495051673834 287.3894547199818) rotate(0 50.92172733315181 0)"><path d="M78.87 7.11 C83.46 5.77, 92.36 1.9, 100.03 0.32 M78.87 7.11 C84.59 4.99, 90.2 2.6, 100.03 0.32" stroke="#1e1e1e" stroke-width="2" fill="none"></path></g><g transform="translate(889.7495051673834 287.3894547199818) rotate(0 50.92172733315181 0)"><path d="M79.45 -8.08 C83.94 -4.95, 92.67 -4.36, 100.03 0.32 M79.45 -8.08 C85.09 -6.47, 90.57 -5.13, 100.03 0.32" stroke="#1e1e1e" stroke-width="2" fill="none"></path></g></g><mask></mask><g stroke-linecap="round"><g transform="translate(350.3677493534169 521.6567377804064) rotate(0 57.80181322776775 0.7904379248371356)"><path d="M0.44 0.65 C4.32 0.96, 15.4 0.58, 23.72 0.92 C32.04 1.27, 34.93 2.66, 50.35 2.71 C65.78 2.77, 105.2 1.66, 116.27 1.27 M-0.79 -0.06 C3.45 0.49, 17.63 1.95, 26.07 2.12 C34.51 2.29, 34.73 0.95, 49.86 0.97 C65 0.98, 105.86 2.34, 116.87 2.21" stroke="#1e1e1e" stroke-width="2" fill="none"></path></g><g transform="translate(350.3677493534169 521.6567377804064) rotate(0 57.80181322776775 0.7904379248371356)"><path d="M93.27 10.46 C102.31 6.47, 108.03 5.73, 116.87 2.21 M93.27 10.46 C103.51 6.3, 111.57 4.15, 116.87 2.21" stroke="#1e1e1e" stroke-width="2" fill="none"></path></g><g transform="translate(350.3677493534169 521.6567377804064) rotate(0 57.80181322776775 0.7904379248371356)"><path d="M93.49 -6.63 C102.31 -4.9, 107.96 0.08, 116.87 2.21 M93.49 -6.63 C103.74 -4.06, 111.71 0.54, 116.87 2.21" stroke="#1e1e1e" stroke-width="2" fill="none"></path></g></g><mask></mask><g stroke-linecap="round"><g transform="translate(711.5440769304018 523.2376136300808) rotate(0 57.80197211579866 0)"><path d="M-0.69 -0.66 C11.1 -0.58, 51.69 1.07, 71.18 1.13 C90.68 1.19, 108.67 0.07, 116.27 -0.31 M1.15 1.61 C12.79 1.33, 51.39 -0.27, 70.51 -0.4 C89.63 -0.52, 108.61 0.89, 115.85 0.85" stroke="#1e1e1e" stroke-width="2" fill="none"></path></g><g transform="translate(711.5440769304018 523.2376136300808) rotate(0 57.80197211579866 0)"><path d="M94.52 7.92 C100.57 6.54, 110.73 4.39, 115.85 0.85 M94.52 7.92 C100.03 6.32, 105.58 3.54, 115.85 0.85" stroke="#1e1e1e" stroke-width="2" fill="none"></path></g><g transform="translate(711.5440769304018 523.2376136300808) rotate(0 57.80197211579866 0)"><path d="M94.97 -7.45 C100.95 -3.66, 110.96 -0.64, 115.85 0.85 M94.97 -7.45 C100.51 -4.84, 105.93 -3.41, 115.85 0.85" stroke="#1e1e1e" stroke-width="2" fill="none"></path></g></g><mask></mask><g stroke-linecap="round"><g transform="translate(1177.7612817751183 523.2376136300808) rotate(0 34.67572387673545 0)"><path d="M0.53 1.13 C4.82 1.19, 13.4 0.07, 25.07 -0.31 C36.74 -0.69, 63.2 -1.25, 70.53 -1.17 M-0.66 0.68 C3.6 0.97, 12.63 1.26, 24.47 1.07 C36.31 0.87, 62.94 -0.51, 70.38 -0.47" stroke="#1e1e1e" stroke-width="2" fill="none"></path></g><g transform="translate(1177.7612817751183 523.2376136300808) rotate(0 34.67572387673545 0)"><path d="M49.46 7.75 C56.47 6.77, 59.15 5.63, 70.38 -0.47 M49.46 7.75 C53.14 5.34, 58.01 3.72, 70.38 -0.47" stroke="#1e1e1e" stroke-width="2" fill="none"></path></g><g transform="translate(1177.7612817751183 523.2376136300808) rotate(0 34.67572387673545 0)"><path d="M49.08 -7.62 C56.1 -4.87, 58.87 -2.28, 70.38 -0.47 M49.08 -7.62 C52.79 -6.91, 57.74 -5.43, 70.38 -0.47" stroke="#1e1e1e" stroke-width="2" fill="none"></path></g></g><mask></mask><g stroke-linecap="round"><g transform="translate(656.5676625265385 808.6080504458462) rotate(0 116.62243578401694 -1.6052018690637624)"><path d="M0.07 0.57 C15.89 0.66, 73.89 1.07, 93.95 0.41 C114 -0.26, 97.04 -3.19, 120.39 -3.41 C143.74 -3.63, 215.25 -1.22, 234.04 -0.91 M-1.35 -0.18 C14.91 -0.45, 75.37 -1.17, 96.07 -1.5 C116.78 -1.84, 99.78 -2.43, 122.89 -2.2 C146 -1.96, 216.58 -0.17, 234.71 -0.11" stroke="#1e1e1e" stroke-width="2" fill="none"></path></g><g transform="translate(656.5676625265385 808.6080504458462) rotate(0 116.62243578401694 -1.6052018690637624)"><path d="M211.08 8.07 C217.19 4.41, 222.08 3.23, 234.71 -0.11 M211.08 8.07 C217.65 4.87, 223.51 4.16, 234.71 -0.11" stroke="#1e1e1e" stroke-width="2" fill="none"></path></g><g transform="translate(656.5676625265385 808.6080504458462) rotate(0 116.62243578401694 -1.6052018690637624)"><path d="M211.35 -9.03 C217.39 -8.96, 222.21 -6.41, 234.71 -0.11 M211.35 -9.03 C217.96 -7.39, 223.74 -3.25, 234.71 -0.11" stroke="#1e1e1e" stroke-width="2" fill="none"></path></g></g><mask></mask><g stroke-linecap="round"><g transform="translate(658.7239125265385 714.6080504458462) rotate(0 101.31117187500001 0)"><path d="M-1.12 0.41 C14.23 0.28, 72.18 -0.04, 92.15 -0.2 C112.12 -0.36, 100.31 -0.4, 118.71 -0.56 C137.1 -0.73, 188.73 -1.42, 202.53 -1.2 M0.49 -0.43 C16.22 -0.42, 74.82 1.09, 94.47 1.23 C114.11 1.38, 100.32 0.78, 118.36 0.46 C136.41 0.13, 188.6 -0.9, 202.73 -0.73" stroke="#1e1e1e" stroke-width="2" fill="none"></path></g><g transform="translate(658.7239125265385 714.6080504458462) rotate(0 101.31117187500001 0)"><path d="M179.28 7.96 C187.1 4.25, 193.26 4.19, 202.73 -0.73 M179.28 7.96 C184.31 6.6, 190.94 4.08, 202.73 -0.73" stroke="#1e1e1e" stroke-width="2" fill="none"></path></g><g transform="translate(658.7239125265385 714.6080504458462) rotate(0 101.31117187500001 0)"><path d="M179.19 -9.15 C187.11 -7.61, 193.31 -2.44, 202.73 -0.73 M179.19 -9.15 C184.22 -6.17, 190.88 -4.36, 202.73 -0.73" stroke="#1e1e1e" stroke-width="2" fill="none"></path></g></g><mask></mask><g stroke-linecap="round"><g transform="translate(754.5174702319637 144.31576038232603) rotate(0 0 33.79387716707194)"><path d="M0.94 0.18 C1.1 11.44, 0.29 56.85, 0 68.2 M-0.02 -0.77 C0.06 10.07, -1.23 55.22, -0.95 66.39" stroke="#1e1e1e" stroke-width="2" fill="none"></path></g><g transform="translate(754.5174702319637 144.31576038232603) rotate(0 0 33.79387716707194)"><path d="M-9.38 42.86 C-7.07 48, -4.5 51.91, -0.95 66.39 M-9.38 42.86 C-5.6 50.58, -2.23 59.4, -0.95 66.39" stroke="#1e1e1e" stroke-width="2" fill="none"></path></g><g transform="translate(754.5174702319637 144.31576038232603) rotate(0 0 33.79387716707194)"><path d="M7.72 42.95 C6.24 48.2, 5.04 52.09, -0.95 66.39 M7.72 42.95 C5.4 50.51, 2.68 59.3, -0.95 66.39" stroke="#1e1e1e" stroke-width="2" fill="none"></path></g></g><mask></mask><g stroke-linecap="round"><g transform="translate(760.5938889435834 357.0838088523044) rotate(0 0.577872672863009 36.770796996972024)"><path d="M0.87 -1.02 C1.19 11.29, 1.35 60.51, 1.25 73.12 M-0.13 1.06 C0.1 13.6, -0.13 62.46, 0.35 74.43" stroke="#1e1e1e" stroke-width="2" fill="none"></path></g><g transform="translate(760.5938889435834 357.0838088523044) rotate(0 0.577872672863009 36.770796996972024)"><path d="M-8.54 51.06 C-8.22 56.86, -5.06 60.99, 0.35 74.43 M-8.54 51.06 C-5.82 59.27, -1.82 68.79, 0.35 74.43" stroke="#1e1e1e" stroke-width="2" fill="none"></path></g><g transform="translate(760.5938889435834 357.0838088523044) rotate(0 0.577872672863009 36.770796996972024)"><path d="M8.56 50.81 C4.7 56.8, 3.69 60.99, 0.35 74.43 M8.56 50.81 C4.59 59.27, 1.89 68.89, 0.35 74.43" stroke="#1e1e1e" stroke-width="2" fill="none"></path></g></g><mask></mask><g stroke-linecap="round"><g transform="translate(773.7974039538462 582.5300335390338) rotate(0 -0.1196605029665534 32.45426324361688)"><path d="M-1.18 0.82 C-1.04 11.78, 0.31 53.87, 0.34 64.61 M0.41 0.2 C0.48 11.44, -0.48 55.51, -0.3 65.99" stroke="#1e1e1e" stroke-width="2" fill="none"></path></g><g transform="translate(773.7974039538462 582.5300335390338) rotate(0 -0.1196605029665534 32.45426324361688)"><path d="M-8.73 42.46 C-5.4 49.65, -5.05 53.56, -0.3 65.99 M-8.73 42.46 C-6.8 50.04, -3.01 58.83, -0.3 65.99" stroke="#1e1e1e" stroke-width="2" fill="none"></path></g><g transform="translate(773.7974039538462 582.5300335390338) rotate(0 -0.1196605029665534 32.45426324361688)"><path d="M8.37 42.55 C7.24 49.55, 3.13 53.44, -0.3 65.99 M8.37 42.55 C4.65 50.17, 2.79 58.92, -0.3 65.99" stroke="#1e1e1e" stroke-width="2" fill="none"></path></g></g><mask></mask></svg>
